<svg width="132" height="42" viewBox="0 0 132 42" fill="none" xmlns="http://www.w3.org/2000/svg">
    <path fill-rule="evenodd" clip-rule="evenodd"
          d="M0.00193074 33.8725C0.00562241 34.2989 0.774719 35.0634 1.23249 35.0657C1.73865 35.0684 26.4412 35.0502 27.07 35.0595C27.682 35.0688 28.4175 34.5215 28.422 34.0255C28.4265 33.4871 28.4704 10.9627 28.4647 10.4958C28.4561 9.76786 27.8026 9.04848 27.1751 9.03877C26.6037 9.03023 12.7919 9.01974 11.4949 9.01236C10.6569 9.0077 2.13571 9.00926 1.6197 9.01508C0.651254 9.02557 -0.0017607 9.58374 0.00152078 10.1839C0.00234115 10.3023 -0.00258129 33.383 0.00193074 33.8725Z"
          fill="#F3A712"/>
    <path fill-rule="evenodd" clip-rule="evenodd"
          d="M8.78826 16.3919C8.78867 16.4257 28.359 21.6474 28.3615 22.1959C28.3631 22.5897 28.439 17.2969 28.3963 15.7459C28.3898 15.5094 28.06 14.9089 27.311 14.8832C26.5394 14.8564 24.4372 14.8553 24.3027 14.8537C23.0734 14.8401 21.408 9.01011 20.111 9.00273C19.273 8.99807 10.7518 8.99963 10.2358 9.00545C9.26736 9.01594 8.61435 9.57412 8.61763 10.1742C8.61845 10.2927 8.78375 15.9025 8.78826 16.3919Z"
          fill="#F7567C"/>
    <path fill-rule="evenodd" clip-rule="evenodd"
          d="M0.00193074 33.8725C0.00562241 34.2989 0.774719 35.0634 1.23249 35.0657C1.73865 35.0684 26.4412 35.0502 27.07 35.0595C27.682 35.0688 28.4175 34.5215 28.422 34.0255C28.4265 33.4871 28.4708 16.5441 28.4639 16.0772C28.4552 15.4941 27.9991 14.9061 27.429 14.8707C26.8592 14.8354 16.2781 14.8431 15.591 14.8357C14.3621 14.8222 12.7919 9.01974 11.4949 9.01236C10.6569 9.0077 2.13571 9.00926 1.6197 9.01508C0.651254 9.02557 -0.0017607 9.58374 0.00152078 10.1839C0.00234115 10.3023 -0.00258129 33.383 0.00193074 33.8725Z"
          fill="#6366F1"/>
    <path d="M35.9567 18.4629H46.2751V15.6855H35.9567V18.4629ZM38.8923 28.2363C38.8923 30.0996 39.3024 31.4355 40.1227 32.2441C40.9431 33.041 42.0622 33.4395 43.4802 33.4395C44.0778 33.4395 44.611 33.3926 45.0798 33.2988C45.5485 33.2168 45.9235 33.1172 46.2048 33V30.2227C45.9235 30.3398 45.6423 30.4277 45.361 30.4863C45.0798 30.5332 44.7927 30.5566 44.4997 30.5566C43.8083 30.5566 43.2985 30.3867 42.9704 30.0469C42.6423 29.6953 42.4782 28.998 42.4782 27.9551V10.4473H38.9274V16.5469L38.8923 16.8984V28.2363ZM48.1384 27.9902C48.1384 29.7129 48.6833 31.0254 49.7731 31.9277C50.863 32.8301 52.2634 33.2812 53.9743 33.2812C55.4509 33.2812 56.6638 33 57.613 32.4375C58.5739 31.875 59.2536 31.2363 59.652 30.5215C59.6989 30.9785 59.7809 31.4355 59.8981 31.8926C60.0153 32.3379 60.1618 32.707 60.3376 33H63.8181V32.7188C63.5954 32.2266 63.4255 31.6523 63.3083 30.9961C63.2028 30.3281 63.1501 29.6191 63.1501 28.8691V21.0996C63.1501 19.0723 62.5524 17.5898 61.3571 16.6523C60.1735 15.7148 58.4919 15.2461 56.3122 15.2461C54.1091 15.2461 52.363 15.7383 51.0739 16.7227C49.7849 17.707 49.1403 18.9141 49.1403 20.3438V20.7129H52.6384V20.4316C52.6384 19.6582 52.9255 19.0312 53.4997 18.5508C54.0739 18.0703 54.9645 17.8301 56.1716 17.8301C57.3903 17.8301 58.2575 18.1172 58.7731 18.6914C59.2888 19.2656 59.5466 20.0508 59.5466 21.0469V22.3652H55.5739C53.3708 22.3652 51.5778 22.8633 50.195 23.8594C48.8239 24.8555 48.1384 26.2324 48.1384 27.9902ZM51.7243 27.7617C51.7243 26.7891 52.0934 26.0391 52.8317 25.5117C53.5817 24.9727 54.7184 24.7031 56.2419 24.7031H59.5466V26.9004C59.5466 27.8613 59.0837 28.7402 58.1579 29.5371C57.2438 30.3223 56.2067 30.7148 55.0466 30.7148C53.9333 30.7148 53.1013 30.457 52.5505 29.9414C51.9997 29.4258 51.7243 28.6992 51.7243 27.7617ZM67.4743 33H70.8669L70.9372 30.8379H71.0075C71.4645 31.5645 72.1618 32.168 73.0993 32.6484C74.0368 33.1172 75.1091 33.3516 76.3161 33.3516C78.5075 33.3516 80.2477 32.5195 81.5368 30.8555C82.8376 29.1797 83.488 27.0703 83.488 24.5273V23.9648C83.488 21.4336 82.8434 19.3594 81.5544 17.7422C80.2653 16.125 78.5251 15.3164 76.3337 15.3164C75.1266 15.3164 74.0837 15.5391 73.2048 15.9844C72.3376 16.4297 71.6286 17.0215 71.0778 17.7598V6.70312H67.4743V33ZM71.0778 27.7266V20.959C71.3942 20.2207 71.9157 19.5703 72.6423 19.0078C73.3806 18.4336 74.2712 18.1465 75.3141 18.1465C76.861 18.1465 77.9977 18.6914 78.7243 19.7812C79.4509 20.8594 79.8141 22.248 79.8141 23.9473V24.5625C79.8141 26.2734 79.4509 27.6973 78.7243 28.834C77.9977 29.9707 76.8962 30.5391 75.4196 30.5391C74.3063 30.5391 73.3864 30.2578 72.6599 29.6953C71.945 29.1211 71.4177 28.4648 71.0778 27.7266ZM85.9665 27.6738L85.9841 27.9199C85.9841 29.6543 86.6052 31.0137 87.8474 31.998C89.0895 32.9707 90.8825 33.457 93.2263 33.457C95.5934 33.457 97.3747 32.9707 98.57 31.998C99.777 31.0254 100.381 29.7129 100.381 28.0605C100.381 26.5723 99.8708 25.4238 98.8513 24.6152C97.8434 23.8066 96.361 23.1797 94.404 22.7344C92.6345 22.3125 91.445 21.9141 90.8356 21.5391C90.238 21.1641 89.9391 20.6602 89.9391 20.0273C89.9391 19.3477 90.197 18.8203 90.7126 18.4453C91.2399 18.0586 92.0485 17.8652 93.1384 17.8652C94.2516 17.8652 95.0895 18.0762 95.652 18.498C96.2263 18.9199 96.5134 19.582 96.5134 20.4844V20.748H99.9587V20.5195C99.9587 18.8438 99.3376 17.543 98.0954 16.6172C96.8649 15.6914 95.2243 15.2285 93.1735 15.2285C91.0993 15.2285 89.4528 15.6855 88.2341 16.5996C87.027 17.502 86.4235 18.709 86.4235 20.2207C86.4235 21.6504 86.9216 22.7695 87.9177 23.5781C88.9138 24.3867 90.3903 25.0195 92.3474 25.4766C94.1403 25.8984 95.3298 26.3027 95.9157 26.6895C96.5134 27.0645 96.8122 27.6328 96.8122 28.3945C96.8122 29.1797 96.4958 29.7891 95.863 30.2227C95.2302 30.6445 94.3395 30.8555 93.1911 30.8555C92.0309 30.8555 91.111 30.627 90.4313 30.1699C89.7634 29.7012 89.4294 28.9629 89.4294 27.9551V27.6914L85.9665 27.6738ZM103.914 33H107.535V6.70312H103.914V33ZM110.558 40.2949C110.898 40.4238 111.256 40.5176 111.631 40.5762C112.017 40.6348 112.48 40.6641 113.019 40.6641C114.472 40.6641 115.662 40.207 116.588 39.293C117.513 38.3906 118.328 36.9844 119.031 35.0742L126.256 15.6855H122.898L118.908 26.9531C118.756 27.3867 118.627 27.7793 118.521 28.1309C118.416 28.4707 118.316 28.7988 118.222 29.1152H118.134C118.052 28.7988 117.959 28.4707 117.853 28.1309C117.748 27.7793 117.619 27.3926 117.466 26.9707L113.406 15.6855H109.82L116.447 33L116.482 33.0176C115.884 34.8574 115.293 36.1172 114.707 36.7969C114.133 37.4883 113.441 37.8281 112.633 37.8164C112.293 37.8164 111.941 37.793 111.578 37.7461C111.226 37.6992 110.892 37.6289 110.576 37.5352L110.558 40.2949Z"
          fill="#F7567C"/>
</svg>
