<svg width="30" height="31" viewBox="0 0 30 31" fill="none" xmlns="http://www.w3.org/2000/svg">
<path d="M3.33999 27.92L0.799988 0H29.12L26.52 27.9L14.92 31" fill="#E44D26"/>
<path d="M14.94 28.62V2.28H26.52L24.32 26.1" fill="#F16529"/>
<path d="M6.03998 5.7H14.94V9.12H9.93998L10.26 12.62H14.94V16.04H6.99998L6.03998 5.7ZM7.15998 17.76H10.74L11 20.5L14.96 21.5V25.1L7.67998 23.14" fill="#EBEBEB"/>
<path d="M23.8 5.7H14.94V9.12H23.5L23.82 5.72L23.8 5.7ZM23.16 12.62H14.92V16.04H19.3L18.88 20.5L14.92 21.5V25.08L22.18 23.14" fill="white"/>
</svg>
