<svg width="32" height="30" viewBox="0 0 32 30" fill="none" xmlns="http://www.w3.org/2000/svg">
<path d="M31.8 6.26968C31.8 6.26968 21.2 -1.53032 13 0.269679L12.4 0.469679C11.2 0.869679 10.2 1.46968 9.60001 2.26968L9.20001 2.86968L6.20001 8.06968L11.4 9.06968C13.6 10.4697 16.4 11.0697 19 10.4697L28.2 12.2697L31.8 6.26968Z" fill="#76B3E1"/>
<path opacity="0.3" d="M31.8 6.26968C31.8 6.26968 21.2 -1.53032 13 0.269679L12.4 0.469679C11.2 0.869679 10.2 1.46968 9.60001 2.26968L9.20001 2.86968L6.20001 8.06968L11.4 9.06968C13.6 10.4697 16.4 11.0697 19 10.4697L28.2 12.2697L31.8 6.26968Z" fill="url(#paint0_linear_35_1306)"/>
<path d="M9.60004 6.26968L8.80004 6.46968C5.40004 7.46968 4.40004 10.6697 6.20004 13.4697C8.20004 16.0697 12.4 17.4697 15.8 16.4697L28.2 12.2697C28.2 12.2697 17.6 4.46968 9.60004 6.26968Z" fill="#518AC8"/>
<path opacity="0.3" d="M9.60004 6.26968L8.80004 6.46968C5.40004 7.46968 4.40004 10.6697 6.20004 13.4697C8.20004 16.0697 12.4 17.4697 15.8 16.4697L28.2 12.2697C28.2 12.2697 17.6 4.46968 9.60004 6.26968Z" fill="url(#paint1_linear_35_1306)"/>
<path d="M26 15.2697C24.8803 13.8708 23.3685 12.838 21.6582 12.3035C19.9479 11.7691 18.117 11.7573 16.4 12.2697L4 16.2697L0 23.2697L22.4 27.0697L26.4 19.8697C27.2 18.4697 27 16.8697 26 15.2697Z" fill="url(#paint2_linear_35_1306)"/>
<path d="M22 22.2697C20.8803 20.8708 19.3685 19.838 17.6582 19.3035C15.9479 18.769 14.117 18.7573 12.4 19.2697L0 23.2697C0 23.2697 10.6 31.2697 18.8 29.2697L19.4 29.0697C22.8 28.0697 24 24.8697 22 22.2697Z" fill="url(#paint3_linear_35_1306)"/>
<defs>
<linearGradient id="paint0_linear_35_1306" x1="4.70001" y1="-0.130321" x2="29.6" y2="11.9697" gradientUnits="userSpaceOnUse">
<stop offset="0.1" stop-color="#76B3E1"/>
<stop offset="0.3" stop-color="#DCF2FD"/>
<stop offset="1" stop-color="#76B3E1"/>
</linearGradient>
<linearGradient id="paint1_linear_35_1306" x1="18.36" y1="5.78968" x2="14" y2="20.3097" gradientUnits="userSpaceOnUse">
<stop stop-color="#76B3E1"/>
<stop offset="0.5" stop-color="#4377BB"/>
<stop offset="1" stop-color="#1F3B77"/>
</linearGradient>
<linearGradient id="paint2_linear_35_1306" x1="2.88" y1="12.1097" x2="28.06" y2="29.2297" gradientUnits="userSpaceOnUse">
<stop stop-color="#315AA9"/>
<stop offset="0.5" stop-color="#518AC8"/>
<stop offset="1" stop-color="#315AA9"/>
</linearGradient>
<linearGradient id="paint3_linear_35_1306" x1="14.24" y1="14.1697" x2="4.08001" y2="51.4297" gradientUnits="userSpaceOnUse">
<stop stop-color="#4377BB"/>
<stop offset="0.5" stop-color="#1A336B"/>
<stop offset="1" stop-color="#1A336B"/>
</linearGradient>
</defs>
</svg>
