<svg width="32" height="32" viewBox="0 0 32 32" fill="none" xmlns="http://www.w3.org/2000/svg">
<path d="M32 18.0002C32 15.916 29.36 13.9497 25.28 12.7307C26.2 8.64085 25.8 5.41619 23.96 4.35441C23.5059 4.11322 22.9961 3.99132 22.48 4.00048V5.41619C22.8 5.41619 23.04 5.45551 23.24 5.57349C24.12 6.08471 24.52 7.97232 24.2 10.4105L23.88 12.2981C22.5113 11.9695 21.1214 11.733 19.72 11.5902C18.84 10.4105 17.92 9.30938 17 8.36557C19.16 6.47797 21.16 5.41619 22.52 5.41619V4.00048C20.72 4.00048 18.36 5.25889 16 7.42177C13.6 5.25889 11.28 4.00048 9.48 4.00048V5.41619C10.84 5.41619 12.84 6.47797 14.96 8.4049C14.04 9.3487 13.12 10.4105 12.28 11.5902C10.8 11.7475 9.4 11.9835 8.12 12.2981C7.95851 11.6924 7.85143 11.0739 7.8 10.4498C7.48 8.01165 7.88 6.08471 8.76 5.57349C8.96 5.45551 9.2 5.41619 9.52 5.41619V4.03981C8.96 4.03981 8.48 4.15778 8.04 4.39373C6.2 5.41619 5.8 8.68018 6.76 12.7307C2.64 13.9497 0 15.916 0 18.0002C0 20.0845 2.64 22.0507 6.72 23.2698C5.8 27.3596 6.2 30.5843 8.04 31.6461C8.48 31.882 8.96 32 9.52 32C11.32 32 13.68 30.7416 16.04 28.5787C18.4 30.7416 20.76 32 22.56 32C23.12 32 23.6 31.882 24.04 31.6461C25.88 30.6236 26.28 27.3596 25.32 23.3091C29.36 22.0507 32 20.0845 32 18.0002ZM23.52 13.7138C23.28 14.5396 22.96 15.4048 22.64 16.2306L21.8 14.6969C21.48 14.1857 21.2 13.6745 20.88 13.2026C21.76 13.3599 22.64 13.5172 23.52 13.7138ZM20.52 20.5564C20 21.4215 19.48 22.2474 18.96 22.9945C17.0033 23.1527 15.0367 23.1527 13.08 22.9945C11.9538 21.4208 10.9764 19.749 10.16 18.0002C10.9764 16.2514 11.9538 14.5797 13.08 13.0059C15.0367 12.8478 17.0033 12.8478 18.96 13.0059C20.0862 14.5797 21.0636 16.2514 21.88 18.0002C21.48 18.8654 21 19.7305 20.52 20.5564ZM22.64 19.7305C23 20.5957 23.28 21.4609 23.56 22.2867C22.72 22.4833 21.8 22.6799 20.88 22.7979C21.2 22.2867 21.52 21.8148 21.8 21.2642L22.64 19.7305ZM16 26.5731C15.4 25.9439 14.8 25.2754 14.2 24.5282C14.8 24.5675 15.4 24.5675 16 24.5675C16.6 24.5675 17.2 24.5675 17.8 24.5282C17.24 25.2754 16.6 25.9439 16 26.5731ZM11.16 22.7979C10.24 22.6799 9.36 22.4833 8.48 22.2867C8.72 21.4609 9.04 20.5957 9.36 19.7699L10.2 21.3036L11.16 22.7979ZM16 9.42735C16.6 10.0566 17.2 10.7251 17.8 11.4723C17.2 11.4329 16.6 11.4329 16 11.4329C15.4 11.4329 14.8 11.4329 14.2 11.4723C14.76 10.7251 15.4 10.0566 16 9.42735ZM11.16 13.2026C10.84 13.7138 10.52 14.1857 10.24 14.7363C9.92 15.2475 9.64 15.7587 9.4 16.2699C9.04 15.4048 8.76 14.5396 8.48 13.7138C9.32 13.5172 10.24 13.3599 11.16 13.2026ZM5.24 21.2642C2.92 20.2811 1.44 19.0227 1.44 18.0002C1.44 16.9778 2.92 15.7194 5.24 14.7363C5.8 14.5003 6.4 14.3037 7.04 14.107C7.4 15.3655 7.92 16.6632 8.52 18.0002C7.92 19.3373 7.44 20.635 7.08 21.8934C6.44 21.6968 5.84 21.5002 5.24 21.2642ZM8.76 30.427C7.88 29.9158 7.48 28.0282 7.8 25.59L8.12 23.7024C9.4 24.017 10.8 24.2529 12.28 24.4102C13.16 25.59 14.08 26.6911 15 27.6349C12.84 29.5225 10.84 30.5843 9.52 30.5843C9.25853 30.5822 9.00012 30.5287 8.76 30.427ZM24.24 25.5113C24.56 27.9495 24.16 29.8764 23.28 30.3877C23.0461 30.5075 22.7832 30.562 22.52 30.545C21.16 30.545 19.16 29.4832 17.04 27.5563C17.96 26.6125 18.88 25.5507 19.72 24.3709C21.2 24.2136 22.6 23.9777 23.88 23.6631C24.04 24.2923 24.16 24.9215 24.24 25.5113ZM26.76 21.2642C26.2 21.5002 25.6 21.6968 24.96 21.8934C24.6 20.635 24.08 19.3373 23.48 18.0002C24.08 16.6632 24.56 15.3655 24.92 14.107C25.56 14.3037 26.16 14.5396 26.76 14.7756C29.08 15.7587 30.56 17.0171 30.56 18.0396C30.56 19.0227 29.04 20.2811 26.76 21.2642ZM16 20.9496C16.7956 20.9496 17.5587 20.6389 18.1213 20.0858C18.6839 19.5327 19 18.7825 19 18.0002C19 17.218 18.6839 16.4678 18.1213 15.9147C17.5587 15.3616 16.7956 15.0509 16 15.0509C15.2044 15.0509 14.4413 15.3616 13.8787 15.9147C13.3161 16.4678 13 17.218 13 18.0002C13 18.7825 13.3161 19.5327 13.8787 20.0858C14.4413 20.6389 15.2044 20.9496 16 20.9496Z" fill="#3096FF"/>
</svg>
