<svg width="27" height="32" viewBox="0 0 27 32" fill="none" xmlns="http://www.w3.org/2000/svg">
<path d="M24.8873 4.20934C23.4736 2.16474 21.3331 0.736577 18.9024 0.21625C16.4717 -0.304078 13.9341 0.122639 11.8073 1.40934L4.36729 6.12934C3.36009 6.76254 2.49521 7.59783 1.82736 8.58239C1.15951 9.56696 0.7032 10.6794 0.487289 11.8493C0.127289 13.8093 0.447289 15.8493 1.36729 17.6493C0.721421 18.6147 0.285354 19.7049 0.0872893 20.8493C-0.157792 22.6696 0.115702 24.522 0.876338 26.1937C1.63697 27.8655 2.85388 29.2887 4.38719 30.2997C5.9205 31.3108 7.70798 31.8687 9.54418 31.9093C11.3804 31.9499 13.1908 31.4716 14.7673 30.5293L22.2073 25.7693C23.2145 25.1361 24.0794 24.3008 24.7472 23.3163C25.4151 22.3317 25.8714 21.2193 26.0873 20.0493C26.4473 18.0893 26.1273 16.0493 25.2073 14.2493C25.8473 13.2893 26.2873 12.2093 26.4873 11.0493C26.686 9.86006 26.6469 8.64318 26.3723 7.46911C26.0976 6.29504 25.5929 5.18708 24.8873 4.20934Z" fill="#FF3E00"/>
<path d="M11.1673 27.8093C8.84727 28.4093 6.36727 27.4893 5.00727 25.5293C4.52254 24.8558 4.20148 24.0785 4.06955 23.2591C3.93763 22.4398 3.99848 21.601 4.24727 20.8093L4.36727 20.4093L4.72727 20.6893C5.56727 21.3293 6.52727 21.8093 7.56727 22.0893L7.84727 22.1693L7.80727 22.4493C7.76727 22.8493 7.88727 23.2093 8.08727 23.5293C8.48727 24.1293 9.24727 24.4093 9.96727 24.2493C10.1239 24.2072 10.2726 24.1397 10.4073 24.0493L17.6473 19.4493C18.0073 19.2093 18.2473 18.8493 18.3273 18.4493C18.3723 18.2411 18.3705 18.0254 18.3221 17.8179C18.2737 17.6104 18.1798 17.4162 18.0473 17.2493C17.799 16.8832 17.4178 16.6283 16.9847 16.5387C16.5515 16.449 16.1004 16.5318 15.7273 16.7693L12.9673 18.5293C11.7196 19.2617 10.2427 19.4996 8.82815 19.196C7.41365 18.8923 6.16444 18.0693 5.32727 16.8893C4.91249 16.3112 4.61745 15.656 4.45946 14.9622C4.30147 14.2684 4.28372 13.5501 4.40727 12.8493C4.64727 11.4493 5.48727 10.2493 6.64727 9.48935L13.8873 4.88935C15.1349 4.15697 16.6119 3.91911 18.0264 4.22274C19.4409 4.52638 20.6901 5.34944 21.5273 6.52935C22.012 7.20294 22.3331 7.98023 22.465 8.79955C22.5969 9.61886 22.5361 10.4577 22.2873 11.2493L22.1673 11.6493L21.8073 11.3693C20.9605 10.7226 19.9959 10.2471 18.9673 9.96935L18.6873 9.88935L18.7273 9.60935C18.7495 9.29612 18.6846 8.98285 18.5396 8.70428C18.3947 8.4257 18.1755 8.19272 17.9062 8.03116C17.6369 7.8696 17.3282 7.78577 17.0142 7.78898C16.7002 7.79219 16.3932 7.88231 16.1273 8.04935L8.92727 12.5693C8.56727 12.7693 8.28727 13.1693 8.24727 13.5693C8.19931 13.7775 8.19961 13.9938 8.24815 14.2018C8.29668 14.4098 8.39215 14.6039 8.52727 14.7693C8.77552 15.1355 9.15671 15.3904 9.58988 15.48C10.0231 15.5697 10.4741 15.4869 10.8473 15.2493L13.6073 13.4893C14.8549 12.757 16.3319 12.5191 17.7464 12.8227C19.1609 13.1264 20.4101 13.9494 21.2473 15.1293C22.0873 16.2893 22.4073 17.7293 22.1673 19.1693C21.9273 20.5693 21.0873 21.7693 19.9273 22.5293L12.6473 27.1293C12.1673 27.4493 11.6873 27.6493 11.1673 27.8093Z" fill="white"/>
</svg>
